<?xml version="1.0" encoding="UTF-8" standalone="no"?>
<?xml-stylesheet href="common/css/sf.css" type="text/css"?>
<!DOCTYPE svg PUBLIC "-//W3C//DTD SVG 1.1//EN"
 "http://www.w3.org/Graphics/SVG/1.1/DTD/svg11.dtd">
<!-- Generated by graphviz version 12.2.1 (0)
 -->
<!-- Pages: 1 -->
<svg width="576pt" height="969pt"
 viewBox="0.00 21.60 576.00 947.41" xmlns="http://www.w3.org/2000/svg" xmlns:xlink="http://www.w3.org/1999/xlink">
<g id="graph0" class="graph deps" transform="scale(0.942833 0.942833) rotate(0) translate(4 1000.86)">
<polygon fill="white" stroke="none" points="-4,4 -4,-977.95 606.92,-977.95 606.92,4 -4,4"/>
<g id="clust1" class="cluster deps">
<title>cluster_Chargueraud</title>
<polygon fill="none" stroke="#595959" points="346.4,-73.2 346.4,-292.2 580.4,-292.2 580.4,-73.2 346.4,-73.2"/>
</g>
<!-- LogicalFoundations -->
<g id="node1" class="node">
<title>LogicalFoundations</title>
<g id="a_node1"><a xlink:title="Go to chapter" target="_top">
<polygon fill="none" stroke="black" stroke-dasharray="1,5" points="277.3,-946.98 111.5,-946.98 111.5,-910.98 277.3,-910.98 277.3,-946.98"/>
<text text-anchor="start" x="129.9" y="-925.28" font-family="Times,serif" font-size="11.00"> &#160;&#160;&#160;&#160;Logical Foundations &#160;&#160;&#160;&#160;&#160;&#160;&#160;</text>
</a>
</g>
</g>
<!-- Preface -->
<g id="node3" class="node">
<title>Preface</title>
<g id="a_node3"><a xlink:href="Preface.html" xlink:title="Go to chapter" target="_top">
<polygon fill="lightblue" stroke="black" points="226.05,-848 162.75,-848 162.75,-812 226.05,-812 226.05,-848"/>
<text text-anchor="middle" x="194.4" y="-826.3" font-family="Times,serif" font-size="11.00">Preface</text>
</a>
</g>
</g>
<!-- LogicalFoundations&#45;&gt;Preface -->
<g id="edge23" class="edge">
<title>LogicalFoundations&#45;&gt;Preface</title>
<path fill="none" stroke="gray" d="M189.08,-910.64C187.54,-896.43 187.24,-876.05 188.19,-859.45"/>
<polygon fill="gray" stroke="gray" points="191.66,-859.95 188.98,-849.7 184.68,-859.38 191.66,-859.95"/>
</g>
<!-- LogicalFoundations&#45;&gt;Preface -->
<g id="edge25" class="edge">
<title>LogicalFoundations&#45;&gt;Preface</title>
<path fill="none" stroke="blue" d="M199.72,-910.64C201.26,-896.43 201.56,-876.05 200.61,-859.45"/>
<polygon fill="blue" stroke="blue" points="204.12,-859.38 199.82,-849.7 197.14,-859.95 204.12,-859.38"/>
</g>
<!-- legend -->
<g id="node2" class="node">
<title>legend</title>
<g id="a_node2"><a xlink:title="Go to chapter" target="_top">
<polygon fill="WhiteSmoke" stroke="none" points="552.75,-973.95 346.05,-973.95 346.05,-884 552.75,-884 552.75,-973.95"/>
<polygon fill="lightblue" stroke="none" points="349.65,-937.1 349.65,-970.35 431.65,-970.35 431.65,-937.1 349.65,-937.1"/>
<polygon fill="none" stroke="#7f7f7f" points="349.65,-937.1 349.65,-970.35 431.65,-970.35 431.65,-937.1 349.65,-937.1"/>
<text text-anchor="start" x="360.65" y="-949.85" font-family="Times,serif" font-size="10.00"> Core chapters </text>
<polygon fill="lightyellow" stroke="none" points="441.65,-937.1 441.65,-970.35 549.15,-970.35 549.15,-937.1 441.65,-937.1"/>
<polygon fill="none" stroke="#7f7f7f" points="441.65,-937.1 441.65,-970.35 549.15,-970.35 549.15,-937.1 441.65,-937.1"/>
<text text-anchor="start" x="452.65" y="-949.85" font-family="Times,serif" font-size="10.00">Contributed chapters</text>
<text text-anchor="start" x="354.65" y="-919.6" font-family="Times,serif" font-size="10.00" fill="gray">⟶</text>
<text text-anchor="start" x="368.9" y="-919.6" font-family="Times,serif" font-size="10.00"> &#160;&#160;&#160;&#160;Chapter dependencies</text>
<text text-anchor="start" x="354.65" y="-896.85" font-family="Times,serif" font-size="10.00" fill="blue">⟶</text>
<text text-anchor="start" x="368.9" y="-896.85" font-family="Times,serif" font-size="10.00"> &#160;&#160;&#160;&#160;Recommended path for semester course</text>
</a>
</g>
</g>
<!-- Equiv -->
<g id="node6" class="node">
<title>Equiv</title>
<g id="a_node6"><a xlink:href="Equiv.html" xlink:title="Go to chapter" target="_top">
<polygon fill="lightblue" stroke="black" points="119.67,-776 7.12,-776 7.12,-730.8 119.67,-730.8 119.67,-776"/>
<text text-anchor="start" x="50.65" y="-757.95" font-family="Times,serif" font-size="11.00">Equiv</text>
<text text-anchor="start" x="25.52" y="-740.35" font-family="Times,serif" font-size="9.00">Program Equivalence</text>
</a>
</g>
</g>
<!-- Preface&#45;&gt;Equiv -->
<g id="edge21" class="edge">
<title>Preface&#45;&gt;Equiv</title>
<path fill="none" stroke="gray" d="M162.34,-813.9C145.19,-804.78 123.94,-792.87 105.5,-782.1"/>
<polygon fill="gray" stroke="gray" points="107.28,-779.09 96.89,-777.03 103.73,-785.12 107.28,-779.09"/>
</g>
<!-- Preface&#45;&gt;Equiv -->
<g id="edge26" class="edge">
<title>Preface&#45;&gt;Equiv</title>
<path fill="none" stroke="blue" d="M169.51,-811.51C154.92,-802.68 135.99,-791.76 118.14,-781.85"/>
<polygon fill="blue" stroke="blue" points="120.14,-778.95 109.69,-777.19 116.76,-785.08 120.14,-778.95"/>
</g>
<!-- Hoare11 -->
<g id="node7" class="node">
<title>Hoare11</title>
<g id="a_node7"><a xlink:href="Hoare11.html" xlink:title="Go to chapter" target="_top">
<polygon fill="lightblue" stroke="black" points="251.05,-776 137.75,-776 137.75,-730.8 251.05,-730.8 251.05,-776"/>
<text text-anchor="start" x="175.28" y="-757.95" font-family="Times,serif" font-size="11.00">Hoare11</text>
<text text-anchor="start" x="156.15" y="-740.35" font-family="Times,serif" font-size="9.00">Hoare Logic, Part 1.1</text>
</a>
</g>
</g>
<!-- Preface&#45;&gt;Hoare11 -->
<g id="edge22" class="edge">
<title>Preface&#45;&gt;Hoare11</title>
<path fill="none" stroke="gray" d="M194.4,-811.7C194.4,-804.56 194.4,-796.03 194.4,-787.77"/>
<polygon fill="gray" stroke="gray" points="197.9,-787.94 194.4,-777.94 190.9,-787.94 197.9,-787.94"/>
</g>
<!-- Smallstep -->
<g id="node11" class="node">
<title>Smallstep</title>
<g id="a_node11"><a xlink:href="Smallstep.html" xlink:title="Go to chapter" target="_top">
<polygon fill="lightblue" stroke="black" points="428.17,-776 270.62,-776 270.62,-730.8 428.17,-730.8 428.17,-776"/>
<text text-anchor="start" x="327.65" y="-757.95" font-family="Times,serif" font-size="11.00">Smallstep</text>
<text text-anchor="start" x="289.02" y="-740.35" font-family="Times,serif" font-size="9.00">Small&#45;Step Operational Semantics</text>
</a>
</g>
</g>
<!-- Preface&#45;&gt;Smallstep -->
<g id="edge20" class="edge">
<title>Preface&#45;&gt;Smallstep</title>
<path fill="none" stroke="gray" d="M226.52,-813.54C245.82,-804.25 270.92,-792.17 293.4,-781.35"/>
<polygon fill="gray" stroke="gray" points="294.65,-784.63 302.15,-777.14 291.62,-778.33 294.65,-784.63"/>
</g>
<!-- Postscript -->
<g id="node4" class="node">
<title>Postscript</title>
<g id="a_node4"><a xlink:href="Postscript.html" xlink:title="Go to chapter" target="_top">
<polygon fill="lightblue" stroke="black" points="286.55,-121.8 214.25,-121.8 214.25,-85.8 286.55,-85.8 286.55,-121.8"/>
<text text-anchor="middle" x="250.4" y="-100.1" font-family="Times,serif" font-size="11.00">Postscript</text>
</a>
</g>
</g>
<!-- Bib -->
<g id="node5" class="node">
<title>Bib</title>
<g id="a_node5"><a xlink:href="Bib.html" xlink:title="Go to chapter" target="_top">
<polygon fill="lightblue" stroke="black" points="292.05,-45.2 208.75,-45.2 208.75,0 292.05,0 292.05,-45.2"/>
<text text-anchor="start" x="242.53" y="-27.15" font-family="Times,serif" font-size="11.00">Bib</text>
<text text-anchor="start" x="227.15" y="-9.55" font-family="Times,serif" font-size="9.00">Bibliography</text>
</a>
</g>
</g>
<!-- Postscript&#45;&gt;Bib -->
<g id="edge24" class="edge">
<title>Postscript&#45;&gt;Bib</title>
<path fill="none" stroke="gray" d="M250.4,-85.61C250.4,-77.18 250.4,-66.72 250.4,-56.81"/>
<polygon fill="gray" stroke="gray" points="253.9,-57.09 250.4,-47.09 246.9,-57.09 253.9,-57.09"/>
</g>
<!-- Equiv&#45;&gt;Hoare11 -->
<g id="edge27" class="edge">
<title>Equiv&#45;&gt;Hoare11</title>
<path fill="none" stroke="blue" d="M119.94,-753.4C121.94,-753.4 123.94,-753.4 125.94,-753.4"/>
<polygon fill="blue" stroke="blue" points="125.88,-756.9 135.88,-753.4 125.88,-749.9 125.88,-756.9"/>
</g>
<!-- PE -->
<g id="node21" class="node">
<title>PE</title>
<g id="a_node21"><a xlink:href="PE.html" xlink:title="Go to chapter" target="_top">
<polygon fill="lightyellow" stroke="black" points="112.92,-694.8 13.88,-694.8 13.88,-649.6 112.92,-649.6 112.92,-694.8"/>
<text text-anchor="start" x="57.02" y="-676.75" font-family="Times,serif" font-size="11.00">PE</text>
<text text-anchor="start" x="32.27" y="-659.15" font-family="Times,serif" font-size="9.00">Partial Evaluation</text>
</a>
</g>
</g>
<!-- Equiv&#45;&gt;PE -->
<g id="edge19" class="edge">
<title>Equiv&#45;&gt;PE</title>
<path fill="none" stroke="gray" d="M63.4,-730.34C63.4,-722.96 63.4,-714.56 63.4,-706.51"/>
<polygon fill="gray" stroke="gray" points="66.9,-706.66 63.4,-696.66 59.9,-706.66 66.9,-706.66"/>
</g>
<!-- Hoare12 -->
<g id="node8" class="node">
<title>Hoare12</title>
<g id="a_node8"><a xlink:href="Hoare12.html" xlink:title="Go to chapter" target="_top">
<polygon fill="lightblue" stroke="black" points="251.05,-694.8 137.75,-694.8 137.75,-649.6 251.05,-649.6 251.05,-694.8"/>
<text text-anchor="start" x="175.28" y="-676.75" font-family="Times,serif" font-size="11.00">Hoare12</text>
<text text-anchor="start" x="156.15" y="-659.15" font-family="Times,serif" font-size="9.00">Hoare Logic, Part 1.2</text>
</a>
</g>
</g>
<!-- Hoare11&#45;&gt;Hoare12 -->
<g id="edge1" class="edge">
<title>Hoare11&#45;&gt;Hoare12</title>
<path fill="none" stroke="gray" d="M188.28,-730.34C187.71,-722.96 187.53,-714.56 187.73,-706.51"/>
<polygon fill="gray" stroke="gray" points="191.22,-706.81 188.21,-696.66 184.22,-706.47 191.22,-706.81"/>
</g>
<!-- Hoare11&#45;&gt;Hoare12 -->
<g id="edge28" class="edge">
<title>Hoare11&#45;&gt;Hoare12</title>
<path fill="none" stroke="blue" d="M200.52,-730.34C201.09,-722.96 201.27,-714.56 201.07,-706.51"/>
<polygon fill="blue" stroke="blue" points="204.58,-706.47 200.59,-696.66 197.58,-706.81 204.58,-706.47"/>
</g>
<!-- Hoare2 -->
<g id="node9" class="node">
<title>Hoare2</title>
<g id="a_node9"><a xlink:href="Hoare2.html" xlink:title="Go to chapter" target="_top">
<polygon fill="lightblue" stroke="black" points="250.3,-613.6 138.5,-613.6 138.5,-568.4 250.3,-568.4 250.3,-613.6"/>
<text text-anchor="start" x="177.9" y="-595.55" font-family="Times,serif" font-size="11.00">Hoare2</text>
<text text-anchor="start" x="156.9" y="-577.95" font-family="Times,serif" font-size="9.00">Hoare Logic (Part II)</text>
</a>
</g>
</g>
<!-- Hoare12&#45;&gt;Hoare2 -->
<g id="edge2" class="edge">
<title>Hoare12&#45;&gt;Hoare2</title>
<path fill="none" stroke="gray" d="M188.28,-649.14C187.71,-641.76 187.53,-633.36 187.73,-625.31"/>
<polygon fill="gray" stroke="gray" points="191.22,-625.61 188.21,-615.46 184.22,-625.27 191.22,-625.61"/>
</g>
<!-- Hoare12&#45;&gt;Hoare2 -->
<g id="edge29" class="edge">
<title>Hoare12&#45;&gt;Hoare2</title>
<path fill="none" stroke="blue" d="M200.52,-649.14C201.09,-641.76 201.27,-633.36 201.07,-625.31"/>
<polygon fill="blue" stroke="blue" points="204.58,-625.27 200.59,-615.46 197.58,-625.61 204.58,-625.27"/>
</g>
<!-- HoareAsLogic -->
<g id="node10" class="node">
<title>HoareAsLogic</title>
<g id="a_node10"><a xlink:href="HoareAsLogic.html" xlink:title="Go to chapter" target="_top">
<polygon fill="lightblue" stroke="black" points="120.05,-613.6 0.75,-613.6 0.75,-568.4 120.05,-568.4 120.05,-613.6"/>
<text text-anchor="start" x="27.4" y="-595.55" font-family="Times,serif" font-size="11.00">HoareAsLogic</text>
<text text-anchor="start" x="19.15" y="-577.95" font-family="Times,serif" font-size="9.00">Hoare Logic as a Logic</text>
</a>
</g>
</g>
<!-- Hoare12&#45;&gt;HoareAsLogic -->
<g id="edge8" class="edge">
<title>Hoare12&#45;&gt;HoareAsLogic</title>
<path fill="none" stroke="gray" d="M157.07,-649.14C141.68,-640.04 123.67,-629.4 107.4,-619.78"/>
<polygon fill="gray" stroke="gray" points="109.22,-616.79 98.83,-614.71 105.66,-622.81 109.22,-616.79"/>
</g>
<!-- Hoare2&#45;&gt;Smallstep -->
<g id="edge30" class="edge">
<title>Hoare2&#45;&gt;Smallstep</title>
<path fill="none" stroke="blue" d="M221.58,-614.09C233.84,-624.45 248.25,-637.23 260.4,-649.6 278.79,-668.33 281.26,-674.93 298.4,-694.8 306.06,-703.67 314.46,-713.23 322.19,-721.96"/>
<polygon fill="blue" stroke="blue" points="319.39,-724.08 328.64,-729.23 324.62,-719.43 319.39,-724.08"/>
</g>
<!-- Types -->
<g id="node12" class="node">
<title>Types</title>
<g id="a_node12"><a xlink:href="Types.html" xlink:title="Go to chapter" target="_top">
<polygon fill="lightblue" stroke="black" points="394.92,-694.8 307.88,-694.8 307.88,-649.6 394.92,-649.6 394.92,-694.8"/>
<text text-anchor="start" x="338.27" y="-676.75" font-family="Times,serif" font-size="11.00">Types</text>
<text text-anchor="start" x="326.27" y="-659.15" font-family="Times,serif" font-size="9.00">Type Systems</text>
</a>
</g>
</g>
<!-- Smallstep&#45;&gt;Types -->
<g id="edge3" class="edge">
<title>Smallstep&#45;&gt;Types</title>
<path fill="none" stroke="gray" d="M343.83,-730.34C343.46,-722.96 343.49,-714.56 343.88,-706.51"/>
<polygon fill="gray" stroke="gray" points="347.37,-706.88 344.62,-696.65 340.39,-706.37 347.37,-706.88"/>
</g>
<!-- Smallstep&#45;&gt;Types -->
<g id="edge31" class="edge">
<title>Smallstep&#45;&gt;Types</title>
<path fill="none" stroke="blue" d="M356.08,-730.34C356.83,-722.96 357.23,-714.56 357.23,-706.51"/>
<polygon fill="blue" stroke="blue" points="360.73,-706.57 357,-696.66 353.74,-706.74 360.73,-706.57"/>
</g>
<!-- Stlc -->
<g id="node13" class="node">
<title>Stlc</title>
<g id="a_node13"><a xlink:href="Stlc.html" xlink:title="Go to chapter" target="_top">
<polygon fill="lightblue" stroke="black" points="436.05,-613.6 268.75,-613.6 268.75,-568.4 436.05,-568.4 436.05,-613.6"/>
<text text-anchor="start" x="343.77" y="-595.55" font-family="Times,serif" font-size="11.00">Stlc</text>
<text text-anchor="start" x="287.15" y="-577.95" font-family="Times,serif" font-size="9.00">The Simply Typed Lambda&#45;Calculus</text>
</a>
</g>
</g>
<!-- Types&#45;&gt;Stlc -->
<g id="edge4" class="edge">
<title>Types&#45;&gt;Stlc</title>
<path fill="none" stroke="gray" d="M345.56,-649.14C345.08,-641.76 345.01,-633.36 345.31,-625.31"/>
<polygon fill="gray" stroke="gray" points="348.79,-625.65 345.92,-615.45 341.8,-625.22 348.79,-625.65"/>
</g>
<!-- Types&#45;&gt;Stlc -->
<g id="edge32" class="edge">
<title>Types&#45;&gt;Stlc</title>
<path fill="none" stroke="blue" d="M357.8,-649.14C358.46,-641.76 358.75,-633.36 358.65,-625.31"/>
<polygon fill="blue" stroke="blue" points="362.16,-625.32 358.29,-615.46 355.16,-625.58 362.16,-625.32"/>
</g>
<!-- StlcProp -->
<g id="node14" class="node">
<title>StlcProp</title>
<g id="a_node14"><a xlink:href="StlcProp.html" xlink:title="Go to chapter" target="_top">
<polygon fill="lightblue" stroke="black" points="379.67,-532.4 273.12,-532.4 273.12,-487.2 379.67,-487.2 379.67,-532.4"/>
<text text-anchor="start" x="307.65" y="-514.35" font-family="Times,serif" font-size="11.00">StlcProp</text>
<text text-anchor="start" x="291.52" y="-496.75" font-family="Times,serif" font-size="9.00">Properties of STLC</text>
</a>
</g>
</g>
<!-- Stlc&#45;&gt;StlcProp -->
<g id="edge5" class="edge">
<title>Stlc&#45;&gt;StlcProp</title>
<path fill="none" stroke="gray" d="M339.03,-567.94C336.01,-560.47 333.04,-551.96 330.58,-543.83"/>
<polygon fill="gray" stroke="gray" points="333.95,-542.9 327.9,-534.2 327.21,-544.77 333.95,-542.9"/>
</g>
<!-- Stlc&#45;&gt;StlcProp -->
<g id="edge33" class="edge">
<title>Stlc&#45;&gt;StlcProp</title>
<path fill="none" stroke="blue" d="M351.28,-567.94C349.36,-560.3 346.67,-551.57 343.71,-543.27"/>
<polygon fill="blue" stroke="blue" points="347.07,-542.27 340.25,-534.16 340.53,-544.75 347.07,-542.27"/>
</g>
<!-- Typechecking -->
<g id="node16" class="node">
<title>Typechecking</title>
<g id="a_node16"><a xlink:href="Typechecking.html" xlink:title="Go to chapter" target="_top">
<polygon fill="lightblue" stroke="black" points="126.8,-370 0,-370 0,-324.8 126.8,-324.8 126.8,-370"/>
<text text-anchor="start" x="32.65" y="-351.95" font-family="Times,serif" font-size="11.00">Typechecking</text>
<text text-anchor="start" x="18.4" y="-334.35" font-family="Times,serif" font-size="9.00">A Typechecker for STLC</text>
</a>
</g>
</g>
<!-- Stlc&#45;&gt;Typechecking -->
<g id="edge12" class="edge">
<title>Stlc&#45;&gt;Typechecking</title>
<path fill="none" stroke="gray" d="M315.95,-568.01C299.75,-557.76 280.69,-545.06 264.4,-532.4 199.97,-482.35 131.13,-416.23 93.06,-378.41"/>
<polygon fill="gray" stroke="gray" points="95.59,-375.98 86.04,-371.4 90.64,-380.94 95.59,-375.98"/>
</g>
<!-- MoreStlc -->
<g id="node15" class="node">
<title>MoreStlc</title>
<g id="a_node15"><a xlink:href="MoreStlc.html" xlink:title="Go to chapter" target="_top">
<polygon fill="lightblue" stroke="black" points="425.05,-451.2 227.75,-451.2 227.75,-406 425.05,-406 425.05,-451.2"/>
<text text-anchor="start" x="305.77" y="-433.15" font-family="Times,serif" font-size="11.00">MoreStlc</text>
<text text-anchor="start" x="246.15" y="-415.55" font-family="Times,serif" font-size="9.00">More on the Simply Typed Lambda&#45;Calculus</text>
</a>
</g>
</g>
<!-- StlcProp&#45;&gt;MoreStlc -->
<g id="edge6" class="edge">
<title>StlcProp&#45;&gt;MoreStlc</title>
<path fill="none" stroke="gray" d="M320.28,-486.74C319.71,-479.36 319.53,-470.96 319.73,-462.91"/>
<polygon fill="gray" stroke="gray" points="323.22,-463.21 320.21,-453.06 316.22,-462.87 323.22,-463.21"/>
</g>
<!-- StlcProp&#45;&gt;MoreStlc -->
<g id="edge34" class="edge">
<title>StlcProp&#45;&gt;MoreStlc</title>
<path fill="none" stroke="blue" d="M332.52,-486.74C333.09,-479.36 333.27,-470.96 333.07,-462.91"/>
<polygon fill="blue" stroke="blue" points="336.58,-462.87 332.59,-453.06 329.58,-463.21 336.58,-462.87"/>
</g>
<!-- MoreStlc&#45;&gt;Typechecking -->
<g id="edge35" class="edge">
<title>MoreStlc&#45;&gt;Typechecking</title>
<path fill="none" stroke="blue" d="M253.14,-405.54C217.19,-394.71 173.96,-381.69 137.85,-370.82"/>
<polygon fill="blue" stroke="blue" points="138.92,-367.49 128.34,-367.96 136.9,-374.19 138.92,-367.49"/>
</g>
<!-- References -->
<g id="node17" class="node">
<title>References</title>
<g id="a_node17"><a xlink:href="References.html" xlink:title="Go to chapter" target="_top">
<polygon fill="lightblue" stroke="black" points="602.92,-370 467.88,-370 467.88,-324.8 602.92,-324.8 602.92,-370"/>
<text text-anchor="start" x="509.9" y="-351.95" font-family="Times,serif" font-size="11.00">References</text>
<text text-anchor="start" x="486.27" y="-334.35" font-family="Times,serif" font-size="9.00">Typing Mutable References</text>
</a>
</g>
</g>
<!-- MoreStlc&#45;&gt;References -->
<g id="edge7" class="edge">
<title>MoreStlc&#45;&gt;References</title>
<path fill="none" stroke="gray" d="M384.62,-405.54C409.99,-395.92 439.92,-384.58 466.4,-374.55"/>
<polygon fill="gray" stroke="gray" points="467.61,-377.83 475.72,-371.02 465.13,-371.29 467.61,-377.83"/>
</g>
<!-- Sub -->
<g id="node18" class="node">
<title>Sub</title>
<g id="a_node18"><a xlink:href="Sub.html" xlink:title="Go to chapter" target="_top">
<polygon fill="lightblue" stroke="black" points="338.17,-288.8 264.62,-288.8 264.62,-243.6 338.17,-243.6 338.17,-288.8"/>
<text text-anchor="start" x="293.15" y="-270.75" font-family="Times,serif" font-size="11.00">Sub</text>
<text text-anchor="start" x="283.02" y="-253.15" font-family="Times,serif" font-size="9.00">Subtyping</text>
</a>
</g>
</g>
<!-- MoreStlc&#45;&gt;Sub -->
<g id="edge11" class="edge">
<title>MoreStlc&#45;&gt;Sub</title>
<path fill="none" stroke="gray" d="M322.98,-405.63C318.74,-378.47 311.5,-331.98 306.58,-300.44"/>
<polygon fill="gray" stroke="gray" points="310.05,-300 305.06,-290.65 303.14,-301.07 310.05,-300"/>
</g>
<!-- Records -->
<g id="node19" class="node">
<title>Records</title>
<g id="a_node19"><a xlink:href="Records.html" xlink:title="Go to chapter" target="_top">
<polygon fill="lightblue" stroke="black" points="273.55,-370 145.25,-370 145.25,-324.8 273.55,-324.8 273.55,-370"/>
<text text-anchor="start" x="191.03" y="-351.95" font-family="Times,serif" font-size="11.00">Records</text>
<text text-anchor="start" x="163.65" y="-334.35" font-family="Times,serif" font-size="9.00">Adding Records to STLC</text>
</a>
</g>
</g>
<!-- MoreStlc&#45;&gt;Records -->
<g id="edge9" class="edge">
<title>MoreStlc&#45;&gt;Records</title>
<path fill="none" stroke="gray" d="M293.81,-405.54C280.62,-396.61 265.24,-386.2 251.24,-376.72"/>
<polygon fill="gray" stroke="gray" points="253.31,-373.9 243.07,-371.19 249.39,-379.7 253.31,-373.9"/>
</g>
<!-- Norm -->
<g id="node22" class="node">
<title>Norm</title>
<g id="a_node22"><a xlink:href="Norm.html" xlink:title="Go to chapter" target="_top">
<polygon fill="lightyellow" stroke="black" points="449.8,-370 329,-370 329,-324.8 449.8,-324.8 449.8,-370"/>
<text text-anchor="start" x="376.65" y="-351.95" font-family="Times,serif" font-size="11.00">Norm</text>
<text text-anchor="start" x="347.4" y="-334.35" font-family="Times,serif" font-size="9.00">Normalization of STLC</text>
</a>
</g>
</g>
<!-- MoreStlc&#45;&gt;Norm -->
<g id="edge14" class="edge">
<title>MoreStlc&#45;&gt;Norm</title>
<path fill="none" stroke="gray" d="M343.95,-405.54C350.43,-397.39 357.91,-387.99 364.9,-379.2"/>
<polygon fill="gray" stroke="gray" points="367.52,-381.53 371,-371.53 362.04,-377.17 367.52,-381.53"/>
</g>
<!-- Typechecking&#45;&gt;References -->
<g id="edge36" class="edge">
<title>Typechecking&#45;&gt;References</title>
<path fill="none" stroke="blue" d="M100.82,-370.44C114.35,-377.53 130.09,-384.42 145.4,-388 211.18,-403.39 383.48,-402.78 449.4,-388 461.61,-385.26 474.13,-380.59 485.71,-375.36"/>
<polygon fill="blue" stroke="blue" points="487.14,-378.55 494.67,-371.1 484.13,-372.23 487.14,-378.55"/>
</g>
<!-- References&#45;&gt;Sub -->
<g id="edge37" class="edge">
<title>References&#45;&gt;Sub</title>
<path fill="none" stroke="blue" d="M467.54,-327.37C422.92,-314.86 369.33,-299.82 346.53,-292.74"/>
<polygon fill="blue" stroke="blue" points="347.97,-289.54 337.38,-289.64 345.72,-296.16 347.97,-289.54"/>
</g>
<!-- Sub&#45;&gt;Records -->
<g id="edge38" class="edge">
<title>Sub&#45;&gt;Records</title>
<path fill="none" stroke="blue" d="M275.91,-289.14C265.96,-297.71 254.39,-307.67 243.72,-316.85"/>
<polygon fill="blue" stroke="blue" points="241.47,-314.17 236.17,-323.35 246.04,-319.48 241.47,-314.17"/>
</g>
<!-- RecordSub -->
<g id="node20" class="node">
<title>RecordSub</title>
<g id="a_node20"><a xlink:href="RecordSub.html" xlink:title="Go to chapter" target="_top">
<polygon fill="lightblue" stroke="black" points="311.93,-207.6 188.88,-207.6 188.88,-162.4 311.93,-162.4 311.93,-207.6"/>
<text text-anchor="start" x="226.03" y="-189.55" font-family="Times,serif" font-size="11.00">RecordSub</text>
<text text-anchor="start" x="207.28" y="-171.95" font-family="Times,serif" font-size="9.00">Subtyping with Records</text>
</a>
</g>
</g>
<!-- Sub&#45;&gt;RecordSub -->
<g id="edge13" class="edge">
<title>Sub&#45;&gt;RecordSub</title>
<path fill="none" stroke="gray" d="M287.19,-243.14C282.05,-235.16 276.15,-225.98 270.59,-217.36"/>
<polygon fill="gray" stroke="gray" points="273.71,-215.73 265.35,-209.22 267.82,-219.52 273.71,-215.73"/>
</g>
<!-- UseTactics -->
<g id="node24" class="node">
<title>UseTactics</title>
<g id="a_node24"><a xlink:href="UseTactics.html" xlink:title="Go to chapter" target="_top">
<polygon fill="lightyellow" stroke="black" points="552.42,-207.6 354.38,-207.6 354.38,-162.4 552.42,-162.4 552.42,-207.6"/>
<text text-anchor="start" x="428.65" y="-189.55" font-family="Times,serif" font-size="11.00">UseTactics</text>
<text text-anchor="start" x="372.77" y="-171.95" font-family="Times,serif" font-size="9.00">Tactic Library for Coq: A Gentle Introduction</text>
</a>
</g>
</g>
<!-- Sub&#45;&gt;UseTactics -->
<g id="edge18" class="edge">
<title>Sub&#45;&gt;UseTactics</title>
<path fill="none" stroke="gray" d="M338.49,-245.65C339.81,-244.95 341.12,-244.27 342.4,-243.6 361.39,-233.67 382.24,-222.83 400.7,-213.26"/>
<polygon fill="gray" stroke="gray" points="402.06,-216.5 409.33,-208.79 398.84,-210.28 402.06,-216.5"/>
</g>
<!-- Records&#45;&gt;RecordSub -->
<g id="edge10" class="edge">
<title>Records&#45;&gt;RecordSub</title>
<path fill="none" stroke="gray" d="M210.2,-324.43C214.88,-297.15 226.58,-250.37 236.44,-218.83"/>
<polygon fill="gray" stroke="gray" points="239.74,-219.99 239.5,-209.4 233.08,-217.83 239.74,-219.99"/>
</g>
<!-- Records&#45;&gt;RecordSub -->
<g id="edge39" class="edge">
<title>Records&#45;&gt;RecordSub</title>
<path fill="none" stroke="blue" d="M219.83,-324.43C229.06,-297.27 241.2,-250.78 247.5,-219.24"/>
<polygon fill="blue" stroke="blue" points="250.93,-219.92 249.33,-209.45 244.05,-218.63 250.93,-219.92"/>
</g>
<!-- RecordSub&#45;&gt;Postscript -->
<g id="edge40" class="edge">
<title>RecordSub&#45;&gt;Postscript</title>
<path fill="none" stroke="blue" d="M250.4,-161.94C250.4,-153.12 250.4,-142.85 250.4,-133.47"/>
<polygon fill="blue" stroke="blue" points="253.9,-133.74 250.4,-123.74 246.9,-133.74 253.9,-133.74"/>
</g>
<!-- LibTactics -->
<g id="node23" class="node">
<title>LibTactics</title>
<g id="a_node23"><a xlink:href="LibTactics.html" xlink:title="Go to chapter" target="_top">
<polygon fill="none" stroke="black" stroke-dasharray="1,5" points="531.05,-284.2 455.75,-284.2 455.75,-248.2 531.05,-248.2 531.05,-284.2"/>
<text text-anchor="middle" x="493.4" y="-262.5" font-family="Times,serif" font-size="11.00">LibTactics</text>
</a>
</g>
</g>
<!-- LibTactics&#45;&gt;UseTactics -->
<g id="edge15" class="edge">
<title>LibTactics&#45;&gt;UseTactics</title>
<path fill="none" stroke="gray" d="M484.72,-248.01C480.32,-239.3 474.83,-228.43 469.68,-218.24"/>
<polygon fill="gray" stroke="gray" points="472.81,-216.68 465.18,-209.33 466.57,-219.83 472.81,-216.68"/>
</g>
<!-- UseAuto -->
<g id="node25" class="node">
<title>UseAuto</title>
<g id="a_node25"><a xlink:href="UseAuto.html" xlink:title="Go to chapter" target="_top">
<polygon fill="lightyellow" stroke="black" points="569.92,-126.4 356.88,-126.4 356.88,-81.2 569.92,-81.2 569.92,-126.4"/>
<text text-anchor="start" x="443.52" y="-108.35" font-family="Times,serif" font-size="11.00">UseAuto</text>
<text text-anchor="start" x="375.27" y="-90.75" font-family="Times,serif" font-size="9.00">Theory and Practice of Automation in Coq Proofs</text>
</a>
</g>
</g>
<!-- LibTactics&#45;&gt;UseAuto -->
<g id="edge16" class="edge">
<title>LibTactics&#45;&gt;UseAuto</title>
<path fill="none" stroke="gray" d="M524.33,-247.72C538.42,-237.93 553.66,-224.3 561.4,-207.6 569.85,-189.37 571.38,-179.84 561.4,-162.4 554.52,-150.37 544.04,-140.61 532.45,-132.77"/>
<polygon fill="gray" stroke="gray" points="534.6,-129.98 524.25,-127.69 530.91,-135.93 534.6,-129.98"/>
</g>
<!-- UseTactics&#45;&gt;UseAuto -->
<g id="edge17" class="edge">
<title>UseTactics&#45;&gt;UseAuto</title>
<path fill="none" stroke="gray" d="M456.19,-161.94C457.12,-154.56 458.18,-146.16 459.19,-138.11"/>
<polygon fill="gray" stroke="gray" points="462.66,-138.6 460.44,-128.24 455.71,-137.73 462.66,-138.6"/>
</g>
</g>
</svg>
