<?xml version="1.0" encoding="UTF-8" standalone="no"?>
<?xml-stylesheet href="common/css/sf.css" type="text/css"?>
<!DOCTYPE svg PUBLIC "-//W3C//DTD SVG 1.1//EN"
 "http://www.w3.org/Graphics/SVG/1.1/DTD/svg11.dtd">
<!-- Generated by graphviz version 12.2.1 (0)
 -->
<!-- Pages: 1 -->
<svg width="576pt" height="968pt"
 viewBox="0.00 21.60 576.00 946.47" xmlns="http://www.w3.org/2000/svg" xmlns:xlink="http://www.w3.org/1999/xlink">
<g id="graph0" class="graph deps" transform="scale(0.941869 0.941869) rotate(0) translate(4 1000.88)">
<polygon fill="white" stroke="none" points="-4,4 -4,-977.95 607.55,-977.95 607.55,4 -4,4"/>
<g id="clust1" class="cluster deps">
<title>cluster_Chargueraud</title>
<polygon fill="none" stroke="#595959" points="201.15,-73.2 201.15,-292.2 435.15,-292.2 435.15,-73.2 201.15,-73.2"/>
</g>
<!-- LogicalFoundations -->
<g id="node1" class="node">
<title>LogicalFoundations</title>
<g id="a_node1"><a xlink:title="Go to chapter" target="_top">
<polygon fill="none" stroke="black" stroke-dasharray="1,5" points="296.05,-946.98 130.25,-946.98 130.25,-910.98 296.05,-910.98 296.05,-946.98"/>
<text text-anchor="start" x="148.65" y="-925.28" font-family="Times,serif" font-size="11.00"> &#160;&#160;&#160;&#160;Logical Foundations &#160;&#160;&#160;&#160;&#160;&#160;&#160;</text>
</a>
</g>
</g>
<!-- Preface -->
<g id="node3" class="node">
<title>Preface</title>
<g id="a_node3"><a xlink:href="Preface.html" xlink:title="Go to chapter" target="_top">
<polygon fill="lightblue" stroke="black" points="244.8,-848 181.5,-848 181.5,-812 244.8,-812 244.8,-848"/>
<text text-anchor="middle" x="213.15" y="-826.3" font-family="Times,serif" font-size="11.00">Preface</text>
</a>
</g>
</g>
<!-- LogicalFoundations&#45;&gt;Preface -->
<g id="edge25" class="edge">
<title>LogicalFoundations&#45;&gt;Preface</title>
<path fill="none" stroke="gray" d="M207.83,-910.64C206.29,-896.43 205.99,-876.05 206.94,-859.45"/>
<polygon fill="gray" stroke="gray" points="210.41,-859.95 207.73,-849.7 203.43,-859.38 210.41,-859.95"/>
</g>
<!-- LogicalFoundations&#45;&gt;Preface -->
<g id="edge27" class="edge">
<title>LogicalFoundations&#45;&gt;Preface</title>
<path fill="none" stroke="blue" d="M218.47,-910.64C220.01,-896.43 220.31,-876.05 219.36,-859.45"/>
<polygon fill="blue" stroke="blue" points="222.87,-859.38 218.57,-849.7 215.89,-859.95 222.87,-859.38"/>
</g>
<!-- legend -->
<g id="node2" class="node">
<title>legend</title>
<g id="a_node2"><a xlink:title="Go to chapter" target="_top">
<polygon fill="WhiteSmoke" stroke="none" points="570.5,-973.95 363.8,-973.95 363.8,-884 570.5,-884 570.5,-973.95"/>
<polygon fill="lightblue" stroke="none" points="367.4,-937.1 367.4,-970.35 449.4,-970.35 449.4,-937.1 367.4,-937.1"/>
<polygon fill="none" stroke="#7f7f7f" points="367.4,-937.1 367.4,-970.35 449.4,-970.35 449.4,-937.1 367.4,-937.1"/>
<text text-anchor="start" x="378.4" y="-949.85" font-family="Times,serif" font-size="10.00"> Core chapters </text>
<polygon fill="lightyellow" stroke="none" points="459.4,-937.1 459.4,-970.35 566.9,-970.35 566.9,-937.1 459.4,-937.1"/>
<polygon fill="none" stroke="#7f7f7f" points="459.4,-937.1 459.4,-970.35 566.9,-970.35 566.9,-937.1 459.4,-937.1"/>
<text text-anchor="start" x="470.4" y="-949.85" font-family="Times,serif" font-size="10.00">Contributed chapters</text>
<text text-anchor="start" x="372.4" y="-919.6" font-family="Times,serif" font-size="10.00" fill="gray">⟶</text>
<text text-anchor="start" x="386.65" y="-919.6" font-family="Times,serif" font-size="10.00"> &#160;&#160;&#160;&#160;Chapter dependencies</text>
<text text-anchor="start" x="372.4" y="-896.85" font-family="Times,serif" font-size="10.00" fill="blue">⟶</text>
<text text-anchor="start" x="386.65" y="-896.85" font-family="Times,serif" font-size="10.00"> &#160;&#160;&#160;&#160;Recommended path for semester course</text>
</a>
</g>
</g>
<!-- Equiv -->
<g id="node6" class="node">
<title>Equiv</title>
<g id="a_node6"><a xlink:href="Equiv.html" xlink:title="Go to chapter" target="_top">
<polygon fill="lightblue" stroke="black" points="138.43,-776 25.88,-776 25.88,-730.8 138.43,-730.8 138.43,-776"/>
<text text-anchor="start" x="69.4" y="-757.95" font-family="Times,serif" font-size="11.00">Equiv</text>
<text text-anchor="start" x="44.28" y="-740.35" font-family="Times,serif" font-size="9.00">Program Equivalence</text>
</a>
</g>
</g>
<!-- Preface&#45;&gt;Equiv -->
<g id="edge23" class="edge">
<title>Preface&#45;&gt;Equiv</title>
<path fill="none" stroke="gray" d="M181.09,-813.9C163.94,-804.78 142.69,-792.87 124.25,-782.1"/>
<polygon fill="gray" stroke="gray" points="126.03,-779.09 115.64,-777.03 122.48,-785.12 126.03,-779.09"/>
</g>
<!-- Preface&#45;&gt;Equiv -->
<g id="edge28" class="edge">
<title>Preface&#45;&gt;Equiv</title>
<path fill="none" stroke="blue" d="M188.26,-811.51C173.67,-802.68 154.74,-791.76 136.89,-781.85"/>
<polygon fill="blue" stroke="blue" points="138.89,-778.95 128.44,-777.19 135.51,-785.08 138.89,-778.95"/>
</g>
<!-- Hoare11 -->
<g id="node7" class="node">
<title>Hoare11</title>
<g id="a_node7"><a xlink:href="Hoare11.html" xlink:title="Go to chapter" target="_top">
<polygon fill="lightblue" stroke="black" points="269.8,-776 156.5,-776 156.5,-730.8 269.8,-730.8 269.8,-776"/>
<text text-anchor="start" x="194.03" y="-757.95" font-family="Times,serif" font-size="11.00">Hoare11</text>
<text text-anchor="start" x="174.9" y="-740.35" font-family="Times,serif" font-size="9.00">Hoare Logic, Part 1.1</text>
</a>
</g>
</g>
<!-- Preface&#45;&gt;Hoare11 -->
<g id="edge24" class="edge">
<title>Preface&#45;&gt;Hoare11</title>
<path fill="none" stroke="gray" d="M213.15,-811.7C213.15,-804.56 213.15,-796.03 213.15,-787.77"/>
<polygon fill="gray" stroke="gray" points="216.65,-787.94 213.15,-777.94 209.65,-787.94 216.65,-787.94"/>
</g>
<!-- Smallstep -->
<g id="node12" class="node">
<title>Smallstep</title>
<g id="a_node12"><a xlink:href="Smallstep.html" xlink:title="Go to chapter" target="_top">
<polygon fill="lightblue" stroke="black" points="447.92,-776 290.38,-776 290.38,-730.8 447.92,-730.8 447.92,-776"/>
<text text-anchor="start" x="347.4" y="-757.95" font-family="Times,serif" font-size="11.00">Smallstep</text>
<text text-anchor="start" x="308.77" y="-740.35" font-family="Times,serif" font-size="9.00">Small&#45;Step Operational Semantics</text>
</a>
</g>
</g>
<!-- Preface&#45;&gt;Smallstep -->
<g id="edge22" class="edge">
<title>Preface&#45;&gt;Smallstep</title>
<path fill="none" stroke="gray" d="M245.1,-813.72C264.58,-804.41 290.03,-792.24 312.8,-781.35"/>
<polygon fill="gray" stroke="gray" points="314.17,-784.57 321.68,-777.1 311.15,-778.26 314.17,-784.57"/>
</g>
<!-- Postscript -->
<g id="node4" class="node">
<title>Postscript</title>
<g id="a_node4"><a xlink:href="Postscript.html" xlink:title="Go to chapter" target="_top">
<polygon fill="lightblue" stroke="black" points="141.3,-121.8 69,-121.8 69,-85.8 141.3,-85.8 141.3,-121.8"/>
<text text-anchor="middle" x="105.15" y="-100.1" font-family="Times,serif" font-size="11.00">Postscript</text>
</a>
</g>
</g>
<!-- Bib -->
<g id="node5" class="node">
<title>Bib</title>
<g id="a_node5"><a xlink:href="Bib.html" xlink:title="Go to chapter" target="_top">
<polygon fill="lightblue" stroke="black" points="146.8,-45.2 63.5,-45.2 63.5,0 146.8,0 146.8,-45.2"/>
<text text-anchor="start" x="97.28" y="-27.15" font-family="Times,serif" font-size="11.00">Bib</text>
<text text-anchor="start" x="81.9" y="-9.55" font-family="Times,serif" font-size="9.00">Bibliography</text>
</a>
</g>
</g>
<!-- Postscript&#45;&gt;Bib -->
<g id="edge26" class="edge">
<title>Postscript&#45;&gt;Bib</title>
<path fill="none" stroke="gray" d="M105.15,-85.61C105.15,-77.18 105.15,-66.72 105.15,-56.81"/>
<polygon fill="gray" stroke="gray" points="108.65,-57.09 105.15,-47.09 101.65,-57.09 108.65,-57.09"/>
</g>
<!-- Equiv&#45;&gt;Hoare11 -->
<g id="edge29" class="edge">
<title>Equiv&#45;&gt;Hoare11</title>
<path fill="none" stroke="blue" d="M138.69,-753.4C140.69,-753.4 142.69,-753.4 144.69,-753.4"/>
<polygon fill="blue" stroke="blue" points="144.63,-756.9 154.63,-753.4 144.63,-749.9 144.63,-756.9"/>
</g>
<!-- PE -->
<g id="node22" class="node">
<title>PE</title>
<g id="a_node22"><a xlink:href="PE.html" xlink:title="Go to chapter" target="_top">
<polygon fill="lightyellow" stroke="black" points="131.68,-694.8 32.63,-694.8 32.63,-649.6 131.68,-649.6 131.68,-694.8"/>
<text text-anchor="start" x="75.78" y="-676.75" font-family="Times,serif" font-size="11.00">PE</text>
<text text-anchor="start" x="51.03" y="-659.15" font-family="Times,serif" font-size="9.00">Partial Evaluation</text>
</a>
</g>
</g>
<!-- Equiv&#45;&gt;PE -->
<g id="edge21" class="edge">
<title>Equiv&#45;&gt;PE</title>
<path fill="none" stroke="gray" d="M82.15,-730.34C82.15,-722.96 82.15,-714.56 82.15,-706.51"/>
<polygon fill="gray" stroke="gray" points="85.65,-706.66 82.15,-696.66 78.65,-706.66 85.65,-706.66"/>
</g>
<!-- Hoare12 -->
<g id="node8" class="node">
<title>Hoare12</title>
<g id="a_node8"><a xlink:href="Hoare12.html" xlink:title="Go to chapter" target="_top">
<polygon fill="lightblue" stroke="black" points="269.8,-694.8 156.5,-694.8 156.5,-649.6 269.8,-649.6 269.8,-694.8"/>
<text text-anchor="start" x="194.03" y="-676.75" font-family="Times,serif" font-size="11.00">Hoare12</text>
<text text-anchor="start" x="174.9" y="-659.15" font-family="Times,serif" font-size="9.00">Hoare Logic, Part 1.2</text>
</a>
</g>
</g>
<!-- Hoare11&#45;&gt;Hoare12 -->
<g id="edge1" class="edge">
<title>Hoare11&#45;&gt;Hoare12</title>
<path fill="none" stroke="gray" d="M207.03,-730.34C206.46,-722.96 206.28,-714.56 206.48,-706.51"/>
<polygon fill="gray" stroke="gray" points="209.97,-706.81 206.96,-696.66 202.97,-706.47 209.97,-706.81"/>
</g>
<!-- Hoare11&#45;&gt;Hoare12 -->
<g id="edge30" class="edge">
<title>Hoare11&#45;&gt;Hoare12</title>
<path fill="none" stroke="blue" d="M219.27,-730.34C219.84,-722.96 220.02,-714.56 219.82,-706.51"/>
<polygon fill="blue" stroke="blue" points="223.33,-706.47 219.34,-696.66 216.33,-706.81 223.33,-706.47"/>
</g>
<!-- Hoare21 -->
<g id="node9" class="node">
<title>Hoare21</title>
<g id="a_node9"><a xlink:href="Hoare21.html" xlink:title="Go to chapter" target="_top">
<polygon fill="lightblue" stroke="black" points="271.68,-613.6 154.62,-613.6 154.62,-568.4 271.68,-568.4 271.68,-613.6"/>
<text text-anchor="start" x="192.53" y="-595.55" font-family="Times,serif" font-size="11.00">Hoare2.1</text>
<text text-anchor="start" x="173.03" y="-577.95" font-family="Times,serif" font-size="9.00">Hoare Logic (Part 2.1)</text>
</a>
</g>
</g>
<!-- Hoare12&#45;&gt;Hoare21 -->
<g id="edge2" class="edge">
<title>Hoare12&#45;&gt;Hoare21</title>
<path fill="none" stroke="gray" d="M207.03,-649.14C206.46,-641.76 206.28,-633.36 206.48,-625.31"/>
<polygon fill="gray" stroke="gray" points="209.97,-625.61 206.96,-615.46 202.97,-625.27 209.97,-625.61"/>
</g>
<!-- Hoare12&#45;&gt;Hoare21 -->
<g id="edge31" class="edge">
<title>Hoare12&#45;&gt;Hoare21</title>
<path fill="none" stroke="blue" d="M219.27,-649.14C219.84,-641.76 220.02,-633.36 219.82,-625.31"/>
<polygon fill="blue" stroke="blue" points="223.33,-625.27 219.34,-615.46 216.33,-625.61 223.33,-625.27"/>
</g>
<!-- HoareAsLogic -->
<g id="node11" class="node">
<title>HoareAsLogic</title>
<g id="a_node11"><a xlink:href="HoareAsLogic.html" xlink:title="Go to chapter" target="_top">
<polygon fill="lightblue" stroke="black" points="136.8,-613.6 17.5,-613.6 17.5,-568.4 136.8,-568.4 136.8,-613.6"/>
<text text-anchor="start" x="44.15" y="-595.55" font-family="Times,serif" font-size="11.00">HoareAsLogic</text>
<text text-anchor="start" x="35.9" y="-577.95" font-family="Times,serif" font-size="9.00">Hoare Logic as a Logic</text>
</a>
</g>
</g>
<!-- Hoare12&#45;&gt;HoareAsLogic -->
<g id="edge10" class="edge">
<title>Hoare12&#45;&gt;HoareAsLogic</title>
<path fill="none" stroke="gray" d="M175.27,-649.14C159.5,-639.96 141.02,-629.2 124.38,-619.51"/>
<polygon fill="gray" stroke="gray" points="126.54,-616.71 116.14,-614.7 123.02,-622.76 126.54,-616.71"/>
</g>
<!-- Hoare22 -->
<g id="node10" class="node">
<title>Hoare22</title>
<g id="a_node10"><a xlink:href="Hoare22.html" xlink:title="Go to chapter" target="_top">
<polygon fill="lightblue" stroke="black" points="271.68,-532.4 154.62,-532.4 154.62,-487.2 271.68,-487.2 271.68,-532.4"/>
<text text-anchor="start" x="194.03" y="-514.35" font-family="Times,serif" font-size="11.00">Hoare22</text>
<text text-anchor="start" x="173.03" y="-496.75" font-family="Times,serif" font-size="9.00">Hoare Logic (Part 2.2)</text>
</a>
</g>
</g>
<!-- Hoare21&#45;&gt;Hoare22 -->
<g id="edge3" class="edge">
<title>Hoare21&#45;&gt;Hoare22</title>
<path fill="none" stroke="gray" d="M207.03,-567.94C206.46,-560.56 206.28,-552.16 206.48,-544.11"/>
<polygon fill="gray" stroke="gray" points="209.97,-544.41 206.96,-534.26 202.97,-544.07 209.97,-544.41"/>
</g>
<!-- Hoare21&#45;&gt;Hoare22 -->
<g id="edge32" class="edge">
<title>Hoare21&#45;&gt;Hoare22</title>
<path fill="none" stroke="blue" d="M219.27,-567.94C219.84,-560.56 220.02,-552.16 219.82,-544.11"/>
<polygon fill="blue" stroke="blue" points="223.33,-544.07 219.34,-534.26 216.33,-544.41 223.33,-544.07"/>
</g>
<!-- Total -->
<g id="node23" class="node">
<title>Total</title>
<g id="a_node23"><a xlink:href="Total.html" xlink:title="Go to chapter" target="_top">
<polygon fill="lightyellow" stroke="black" points="262.68,-451.2 163.62,-451.2 163.62,-406 262.68,-406 262.68,-451.2"/>
<text text-anchor="start" x="201.9" y="-433.15" font-family="Times,serif" font-size="11.00">Total</text>
<text text-anchor="start" x="182.03" y="-415.55" font-family="Times,serif" font-size="9.00">Total Correctness</text>
</a>
</g>
</g>
<!-- Hoare22&#45;&gt;Total -->
<g id="edge4" class="edge">
<title>Hoare22&#45;&gt;Total</title>
<path fill="none" stroke="gray" d="M207.03,-486.74C206.46,-479.36 206.28,-470.96 206.48,-462.91"/>
<polygon fill="gray" stroke="gray" points="209.97,-463.21 206.96,-453.06 202.97,-462.87 209.97,-463.21"/>
</g>
<!-- Hoare22&#45;&gt;Total -->
<g id="edge33" class="edge">
<title>Hoare22&#45;&gt;Total</title>
<path fill="none" stroke="blue" d="M219.27,-486.74C219.84,-479.36 220.02,-470.96 219.82,-462.91"/>
<polygon fill="blue" stroke="blue" points="223.33,-462.87 219.34,-453.06 216.33,-463.21 223.33,-462.87"/>
</g>
<!-- Types -->
<g id="node13" class="node">
<title>Types</title>
<g id="a_node13"><a xlink:href="Types.html" xlink:title="Go to chapter" target="_top">
<polygon fill="lightblue" stroke="black" points="415.67,-694.8 328.62,-694.8 328.62,-649.6 415.67,-649.6 415.67,-694.8"/>
<text text-anchor="start" x="359.02" y="-676.75" font-family="Times,serif" font-size="11.00">Types</text>
<text text-anchor="start" x="347.02" y="-659.15" font-family="Times,serif" font-size="9.00">Type Systems</text>
</a>
</g>
</g>
<!-- Smallstep&#45;&gt;Types -->
<g id="edge5" class="edge">
<title>Smallstep&#45;&gt;Types</title>
<path fill="none" stroke="gray" d="M363.86,-730.34C363.58,-722.96 363.71,-714.56 364.21,-706.51"/>
<polygon fill="gray" stroke="gray" points="367.69,-706.92 365.07,-696.65 360.72,-706.31 367.69,-706.92"/>
</g>
<!-- Smallstep&#45;&gt;Types -->
<g id="edge35" class="edge">
<title>Smallstep&#45;&gt;Types</title>
<path fill="none" stroke="blue" d="M376.11,-730.34C376.95,-722.96 377.45,-714.56 377.56,-706.51"/>
<polygon fill="blue" stroke="blue" points="381.06,-706.62 377.45,-696.66 374.06,-706.7 381.06,-706.62"/>
</g>
<!-- Stlc -->
<g id="node14" class="node">
<title>Stlc</title>
<g id="a_node14"><a xlink:href="Stlc.html" xlink:title="Go to chapter" target="_top">
<polygon fill="lightblue" stroke="black" points="495.8,-613.6 328.5,-613.6 328.5,-568.4 495.8,-568.4 495.8,-613.6"/>
<text text-anchor="start" x="403.52" y="-595.55" font-family="Times,serif" font-size="11.00">Stlc</text>
<text text-anchor="start" x="346.9" y="-577.95" font-family="Times,serif" font-size="9.00">The Simply Typed Lambda&#45;Calculus</text>
</a>
</g>
</g>
<!-- Types&#45;&gt;Stlc -->
<g id="edge6" class="edge">
<title>Types&#45;&gt;Stlc</title>
<path fill="none" stroke="gray" d="M377.17,-649.14C380.52,-641.33 384.87,-632.38 389.4,-623.92"/>
<polygon fill="gray" stroke="gray" points="392.41,-625.7 394.22,-615.27 386.29,-622.3 392.41,-625.7"/>
</g>
<!-- Types&#45;&gt;Stlc -->
<g id="edge36" class="edge">
<title>Types&#45;&gt;Stlc</title>
<path fill="none" stroke="blue" d="M389.42,-649.14C393.91,-641.41 398.54,-632.58 402.53,-624.19"/>
<polygon fill="blue" stroke="blue" points="405.62,-625.87 406.56,-615.32 399.24,-622.98 405.62,-625.87"/>
</g>
<!-- StlcProp -->
<g id="node15" class="node">
<title>StlcProp</title>
<g id="a_node15"><a xlink:href="StlcProp.html" xlink:title="Go to chapter" target="_top">
<polygon fill="lightblue" stroke="black" points="442.42,-532.4 335.88,-532.4 335.88,-487.2 442.42,-487.2 442.42,-532.4"/>
<text text-anchor="start" x="370.4" y="-514.35" font-family="Times,serif" font-size="11.00">StlcProp</text>
<text text-anchor="start" x="354.27" y="-496.75" font-family="Times,serif" font-size="9.00">Properties of STLC</text>
</a>
</g>
</g>
<!-- Stlc&#45;&gt;StlcProp -->
<g id="edge7" class="edge">
<title>Stlc&#45;&gt;StlcProp</title>
<path fill="none" stroke="gray" d="M399.62,-567.94C396.88,-560.47 394.23,-551.96 392.08,-543.83"/>
<polygon fill="gray" stroke="gray" points="395.5,-543.12 389.76,-534.21 388.7,-544.76 395.5,-543.12"/>
</g>
<!-- Stlc&#45;&gt;StlcProp -->
<g id="edge37" class="edge">
<title>Stlc&#45;&gt;StlcProp</title>
<path fill="none" stroke="blue" d="M411.87,-567.94C410.25,-560.39 407.93,-551.77 405.32,-543.55"/>
<polygon fill="blue" stroke="blue" points="408.66,-542.51 402.13,-534.18 402.04,-544.77 408.66,-542.51"/>
</g>
<!-- Typechecking -->
<g id="node17" class="node">
<title>Typechecking</title>
<g id="a_node17"><a xlink:href="Typechecking.html" xlink:title="Go to chapter" target="_top">
<polygon fill="lightblue" stroke="black" points="603.55,-370 476.75,-370 476.75,-324.8 603.55,-324.8 603.55,-370"/>
<text text-anchor="start" x="509.4" y="-351.95" font-family="Times,serif" font-size="11.00">Typechecking</text>
<text text-anchor="start" x="495.15" y="-334.35" font-family="Times,serif" font-size="9.00">A Typechecker for STLC</text>
</a>
</g>
</g>
<!-- Stlc&#45;&gt;Typechecking -->
<g id="edge14" class="edge">
<title>Stlc&#45;&gt;Typechecking</title>
<path fill="none" stroke="gray" d="M427.57,-568.12C434.91,-557.47 443.7,-544.41 451.15,-532.4 473.02,-497.15 478.89,-488.44 497.15,-451.2 508.43,-428.19 519.55,-401.47 527.66,-381.04"/>
<polygon fill="gray" stroke="gray" points="530.88,-382.39 531.28,-371.8 524.37,-379.84 530.88,-382.39"/>
</g>
<!-- MoreStlc -->
<g id="node16" class="node">
<title>MoreStlc</title>
<g id="a_node16"><a xlink:href="MoreStlc.html" xlink:title="Go to chapter" target="_top">
<polygon fill="lightblue" stroke="black" points="487.8,-451.2 290.5,-451.2 290.5,-406 487.8,-406 487.8,-451.2"/>
<text text-anchor="start" x="368.52" y="-433.15" font-family="Times,serif" font-size="11.00">MoreStlc</text>
<text text-anchor="start" x="308.9" y="-415.55" font-family="Times,serif" font-size="9.00">More on the Simply Typed Lambda&#45;Calculus</text>
</a>
</g>
</g>
<!-- StlcProp&#45;&gt;MoreStlc -->
<g id="edge8" class="edge">
<title>StlcProp&#45;&gt;MoreStlc</title>
<path fill="none" stroke="gray" d="M383.03,-486.74C382.46,-479.36 382.28,-470.96 382.48,-462.91"/>
<polygon fill="gray" stroke="gray" points="385.97,-463.21 382.96,-453.06 378.97,-462.87 385.97,-463.21"/>
</g>
<!-- StlcProp&#45;&gt;MoreStlc -->
<g id="edge38" class="edge">
<title>StlcProp&#45;&gt;MoreStlc</title>
<path fill="none" stroke="blue" d="M395.27,-486.74C395.84,-479.36 396.02,-470.96 395.82,-462.91"/>
<polygon fill="blue" stroke="blue" points="399.33,-462.87 395.34,-453.06 392.33,-463.21 399.33,-462.87"/>
</g>
<!-- MoreStlc&#45;&gt;Typechecking -->
<g id="edge39" class="edge">
<title>MoreStlc&#45;&gt;Typechecking</title>
<path fill="none" stroke="blue" d="M431.21,-405.54C448.81,-396.31 469.44,-385.49 487.99,-375.76"/>
<polygon fill="blue" stroke="blue" points="489.48,-378.93 496.71,-371.18 486.23,-372.73 489.48,-378.93"/>
</g>
<!-- References -->
<g id="node18" class="node">
<title>References</title>
<g id="a_node18"><a xlink:href="References.html" xlink:title="Go to chapter" target="_top">
<polygon fill="lightblue" stroke="black" points="319.68,-370 184.62,-370 184.62,-324.8 319.68,-324.8 319.68,-370"/>
<text text-anchor="start" x="226.65" y="-351.95" font-family="Times,serif" font-size="11.00">References</text>
<text text-anchor="start" x="203.03" y="-334.35" font-family="Times,serif" font-size="9.00">Typing Mutable References</text>
</a>
</g>
</g>
<!-- MoreStlc&#45;&gt;References -->
<g id="edge9" class="edge">
<title>MoreStlc&#45;&gt;References</title>
<path fill="none" stroke="gray" d="M350.99,-405.54C335.1,-396.36 316.49,-385.6 299.73,-375.91"/>
<polygon fill="gray" stroke="gray" points="301.83,-373.08 291.42,-371.1 298.32,-379.14 301.83,-373.08"/>
</g>
<!-- Sub -->
<g id="node19" class="node">
<title>Sub</title>
<g id="a_node19"><a xlink:href="Sub.html" xlink:title="Go to chapter" target="_top">
<polygon fill="lightblue" stroke="black" points="192.93,-288.8 119.38,-288.8 119.38,-243.6 192.93,-243.6 192.93,-288.8"/>
<text text-anchor="start" x="147.9" y="-270.75" font-family="Times,serif" font-size="11.00">Sub</text>
<text text-anchor="start" x="137.78" y="-253.15" font-family="Times,serif" font-size="9.00">Subtyping</text>
</a>
</g>
</g>
<!-- MoreStlc&#45;&gt;Sub -->
<g id="edge13" class="edge">
<title>MoreStlc&#45;&gt;Sub</title>
<path fill="none" stroke="gray" d="M290.22,-406.01C238.26,-393.79 183.6,-379.15 175.15,-370 158.04,-351.46 153.91,-322.74 153.71,-300.37"/>
<polygon fill="gray" stroke="gray" points="157.2,-300.59 153.9,-290.53 150.2,-300.46 157.2,-300.59"/>
</g>
<!-- Records -->
<g id="node20" class="node">
<title>Records</title>
<g id="a_node20"><a xlink:href="Records.html" xlink:title="Go to chapter" target="_top">
<polygon fill="lightblue" stroke="black" points="128.3,-370 0,-370 0,-324.8 128.3,-324.8 128.3,-370"/>
<text text-anchor="start" x="45.78" y="-351.95" font-family="Times,serif" font-size="11.00">Records</text>
<text text-anchor="start" x="18.4" y="-334.35" font-family="Times,serif" font-size="9.00">Adding Records to STLC</text>
</a>
</g>
</g>
<!-- MoreStlc&#45;&gt;Records -->
<g id="edge11" class="edge">
<title>MoreStlc&#45;&gt;Records</title>
<path fill="none" stroke="gray" d="M290.37,-405.54C245.09,-395.18 190.79,-382.4 142.15,-370 141.33,-369.79 140.51,-369.58 139.69,-369.37"/>
<polygon fill="gray" stroke="gray" points="140.82,-366.05 130.26,-366.9 139.04,-372.82 140.82,-366.05"/>
</g>
<!-- Norm -->
<g id="node24" class="node">
<title>Norm</title>
<g id="a_node24"><a xlink:href="Norm.html" xlink:title="Go to chapter" target="_top">
<polygon fill="lightyellow" stroke="black" points="458.55,-370 337.75,-370 337.75,-324.8 458.55,-324.8 458.55,-370"/>
<text text-anchor="start" x="385.4" y="-351.95" font-family="Times,serif" font-size="11.00">Norm</text>
<text text-anchor="start" x="356.15" y="-334.35" font-family="Times,serif" font-size="9.00">Normalization of STLC</text>
</a>
</g>
</g>
<!-- MoreStlc&#45;&gt;Norm -->
<g id="edge16" class="edge">
<title>MoreStlc&#45;&gt;Norm</title>
<path fill="none" stroke="gray" d="M391.66,-405.54C392.5,-398.16 393.45,-389.76 394.36,-381.71"/>
<polygon fill="gray" stroke="gray" points="397.83,-382.18 395.49,-371.85 390.88,-381.39 397.83,-382.18"/>
</g>
<!-- Typechecking&#45;&gt;References -->
<g id="edge40" class="edge">
<title>Typechecking&#45;&gt;References</title>
<path fill="none" stroke="blue" d="M502.73,-370.44C489.2,-377.53 473.46,-384.42 458.15,-388 406.22,-400.15 390.19,-399.67 338.15,-388 325.94,-385.26 313.42,-380.59 301.84,-375.36"/>
<polygon fill="blue" stroke="blue" points="303.42,-372.23 292.88,-371.1 300.41,-378.55 303.42,-372.23"/>
</g>
<!-- References&#45;&gt;Sub -->
<g id="edge41" class="edge">
<title>References&#45;&gt;Sub</title>
<path fill="none" stroke="blue" d="M225.41,-324.34C214.9,-315.67 202.69,-305.6 191.48,-296.35"/>
<polygon fill="blue" stroke="blue" points="193.86,-293.77 183.92,-290.11 189.4,-299.17 193.86,-293.77"/>
</g>
<!-- Sub&#45;&gt;Records -->
<g id="edge42" class="edge">
<title>Sub&#45;&gt;Records</title>
<path fill="none" stroke="blue" d="M130.66,-289.14C120.71,-297.71 109.14,-307.67 98.47,-316.85"/>
<polygon fill="blue" stroke="blue" points="96.22,-314.17 90.92,-323.35 100.79,-319.48 96.22,-314.17"/>
</g>
<!-- RecordSub -->
<g id="node21" class="node">
<title>RecordSub</title>
<g id="a_node21"><a xlink:href="RecordSub.html" xlink:title="Go to chapter" target="_top">
<polygon fill="lightblue" stroke="black" points="166.68,-207.6 43.63,-207.6 43.63,-162.4 166.68,-162.4 166.68,-207.6"/>
<text text-anchor="start" x="80.78" y="-189.55" font-family="Times,serif" font-size="11.00">RecordSub</text>
<text text-anchor="start" x="62.03" y="-171.95" font-family="Times,serif" font-size="9.00">Subtyping with Records</text>
</a>
</g>
</g>
<!-- Sub&#45;&gt;RecordSub -->
<g id="edge15" class="edge">
<title>Sub&#45;&gt;RecordSub</title>
<path fill="none" stroke="gray" d="M141.94,-243.14C136.8,-235.16 130.9,-225.98 125.34,-217.36"/>
<polygon fill="gray" stroke="gray" points="128.46,-215.73 120.1,-209.22 122.57,-219.52 128.46,-215.73"/>
</g>
<!-- UseTactics -->
<g id="node26" class="node">
<title>UseTactics</title>
<g id="a_node26"><a xlink:href="UseTactics.html" xlink:title="Go to chapter" target="_top">
<polygon fill="lightyellow" stroke="black" points="407.17,-207.6 209.12,-207.6 209.12,-162.4 407.17,-162.4 407.17,-207.6"/>
<text text-anchor="start" x="283.4" y="-189.55" font-family="Times,serif" font-size="11.00">UseTactics</text>
<text text-anchor="start" x="227.52" y="-171.95" font-family="Times,serif" font-size="9.00">Tactic Library for Coq: A Gentle Introduction</text>
</a>
</g>
</g>
<!-- Sub&#45;&gt;UseTactics -->
<g id="edge20" class="edge">
<title>Sub&#45;&gt;UseTactics</title>
<path fill="none" stroke="gray" d="M193.24,-245.65C194.56,-244.95 195.87,-244.27 197.15,-243.6 216.14,-233.67 236.99,-222.83 255.45,-213.26"/>
<polygon fill="gray" stroke="gray" points="256.81,-216.5 264.08,-208.79 253.59,-210.28 256.81,-216.5"/>
</g>
<!-- Records&#45;&gt;RecordSub -->
<g id="edge12" class="edge">
<title>Records&#45;&gt;RecordSub</title>
<path fill="none" stroke="gray" d="M64.95,-324.43C69.63,-297.15 81.33,-250.37 91.19,-218.83"/>
<polygon fill="gray" stroke="gray" points="94.49,-219.99 94.25,-209.4 87.83,-217.83 94.49,-219.99"/>
</g>
<!-- Records&#45;&gt;RecordSub -->
<g id="edge43" class="edge">
<title>Records&#45;&gt;RecordSub</title>
<path fill="none" stroke="blue" d="M74.58,-324.43C83.81,-297.27 95.95,-250.78 102.25,-219.24"/>
<polygon fill="blue" stroke="blue" points="105.68,-219.92 104.08,-209.45 98.8,-218.63 105.68,-219.92"/>
</g>
<!-- RecordSub&#45;&gt;Postscript -->
<g id="edge44" class="edge">
<title>RecordSub&#45;&gt;Postscript</title>
<path fill="none" stroke="blue" d="M105.15,-161.94C105.15,-153.12 105.15,-142.85 105.15,-133.47"/>
<polygon fill="blue" stroke="blue" points="108.65,-133.74 105.15,-123.74 101.65,-133.74 108.65,-133.74"/>
</g>
<!-- Total&#45;&gt;Smallstep -->
<g id="edge34" class="edge">
<title>Total&#45;&gt;Smallstep</title>
<path fill="none" stroke="blue" d="M248.08,-451.68C260.36,-461.16 273.09,-473.27 281.15,-487.2 328.13,-568.39 278.52,-610.26 319.15,-694.8 323.78,-704.44 330.47,-713.73 337.46,-721.94"/>
<polygon fill="blue" stroke="blue" points="334.76,-724.17 344.05,-729.25 339.95,-719.48 334.76,-724.17"/>
</g>
<!-- LibTactics -->
<g id="node25" class="node">
<title>LibTactics</title>
<g id="a_node25"><a xlink:href="LibTactics.html" xlink:title="Go to chapter" target="_top">
<polygon fill="none" stroke="black" stroke-dasharray="1,5" points="385.8,-284.2 310.5,-284.2 310.5,-248.2 385.8,-248.2 385.8,-284.2"/>
<text text-anchor="middle" x="348.15" y="-262.5" font-family="Times,serif" font-size="11.00">LibTactics</text>
</a>
</g>
</g>
<!-- LibTactics&#45;&gt;UseTactics -->
<g id="edge17" class="edge">
<title>LibTactics&#45;&gt;UseTactics</title>
<path fill="none" stroke="gray" d="M339.47,-248.01C335.07,-239.3 329.58,-228.43 324.43,-218.24"/>
<polygon fill="gray" stroke="gray" points="327.56,-216.68 319.93,-209.33 321.32,-219.83 327.56,-216.68"/>
</g>
<!-- UseAuto -->
<g id="node27" class="node">
<title>UseAuto</title>
<g id="a_node27"><a xlink:href="UseAuto.html" xlink:title="Go to chapter" target="_top">
<polygon fill="lightyellow" stroke="black" points="424.67,-126.4 211.62,-126.4 211.62,-81.2 424.67,-81.2 424.67,-126.4"/>
<text text-anchor="start" x="298.27" y="-108.35" font-family="Times,serif" font-size="11.00">UseAuto</text>
<text text-anchor="start" x="230.02" y="-90.75" font-family="Times,serif" font-size="9.00">Theory and Practice of Automation in Coq Proofs</text>
</a>
</g>
</g>
<!-- LibTactics&#45;&gt;UseAuto -->
<g id="edge18" class="edge">
<title>LibTactics&#45;&gt;UseAuto</title>
<path fill="none" stroke="gray" d="M379.08,-247.72C393.17,-237.93 408.41,-224.3 416.15,-207.6 424.6,-189.37 426.13,-179.84 416.15,-162.4 409.27,-150.37 398.79,-140.61 387.2,-132.77"/>
<polygon fill="gray" stroke="gray" points="389.35,-129.98 379,-127.69 385.66,-135.93 389.35,-129.98"/>
</g>
<!-- UseTactics&#45;&gt;UseAuto -->
<g id="edge19" class="edge">
<title>UseTactics&#45;&gt;UseAuto</title>
<path fill="none" stroke="gray" d="M310.94,-161.94C311.87,-154.56 312.93,-146.16 313.94,-138.11"/>
<polygon fill="gray" stroke="gray" points="317.41,-138.6 315.19,-128.24 310.46,-137.73 317.41,-138.6"/>
</g>
</g>
</svg>
